<svg xmlns="http://www.w3.org/2000/svg" viewBox="0 0 76.93 80.97"><defs><style>.cls-1{fill:#ffd400;}.cls-2{fill:#ffca00;}.cls-3{fill:#f29c00;}</style></defs><title>coin</title><g id="Layer_2" data-name="Layer 2"><g id="Layer_1-2" data-name="Layer 1"><path class="cls-1" d="M38.84.16c16.62-.88,32.23,11.59,36.67,29.6,4.08,16.56-.52,33-15.52,44-14.64,10.74-33.37,9.06-46.14-2.46C3.72,62.18-.85,50.68.13,37.2,1.44,19,13.45,4,31.89.22,34.12-.24,36.52.16,38.84.16Zm32.1,38.6c.42-4.33-2.41-12-5.11-16.74C55.38,3.75,30.57.36,16.16,15.36,6.53,25.39,3.5,37.44,7.53,50.83c4.21,14,14,22,28.33,23.78,9.4,1.18,17.8-2.53,24.58-9C67.52,58.76,70.7,50.1,70.94,38.76Z"/><path class="cls-2" d="M70.94,38.76c-.24,11.34-3.42,20-10.5,26.8-6.78,6.52-15.18,10.23-24.58,9-14.28-1.78-24.12-9.8-28.33-23.78-4-13.39-1-25.44,8.63-35.47C30.57.36,55.38,3.75,65.83,22,68.53,26.75,71.36,34.43,70.94,38.76ZM43.86,47.34a6.8,6.8,0,0,1-3.77,5.37c-2.2.79-4.44-.07-6-2.37-.54-.83-.7-2.06-1.41-2.57a4.21,4.21,0,0,0-3.06-.63c-.65.16-1.66,1.64-1.46,2.11,1.25,3.06,1.44,6.94,5.86,7.77,1.83.34,3.26,1.49,2.89,3.86-.24,1.53.84,2.19,2.15,1.82.7-.21,1.69-1.2,1.67-1.79-.08-2,.83-2.89,2.4-3.83,8.12-4.88,8.23-13.85.26-19.1-1.51-1-3.17-1.75-4.72-2.68a19.68,19.68,0,0,1-2.83-1.94c-1.69-1.45-1-3.09.08-4.42s2.28-2.49,4.16-1.35a12.79,12.79,0,0,1,2.81,1.95c1.72,1.92,3,.42,4.16-.52s.94-2.42-.18-3.44A11.12,11.12,0,0,0,43.4,23c-1.69-.57-2.54-1.42-2.52-3.15,0-1.55-.84-1.95-2.22-1.91-1.7,0-1.85,1.18-1.72,2.39.16,1.59-.64,2.3-1.94,3a9,9,0,0,0,.61,16.42,23.24,23.24,0,0,1,4.86,2.43C42.17,43.47,44.13,44.72,43.86,47.34Z"/><path class="cls-3" d="M43.86,47.34c.27-2.62-1.69-3.87-3.39-5.09a23.24,23.24,0,0,0-4.86-2.43A9,9,0,0,1,35,23.4c1.3-.73,2.1-1.44,1.94-3C36.81,19.16,37,18,38.66,18c1.38,0,2.24.36,2.22,1.91,0,1.73.83,2.58,2.52,3.15a11.12,11.12,0,0,1,3.52,2.54c1.12,1,1.46,2.4.18,3.44s-2.44,2.44-4.16.52a12.79,12.79,0,0,0-2.81-1.95c-1.88-1.14-3.17.08-4.16,1.35s-1.77,3-.08,4.42a19.68,19.68,0,0,0,2.83,1.94c1.55.93,3.21,1.69,4.72,2.68,8,5.25,7.86,14.22-.26,19.1-1.57.94-2.48,1.87-2.4,3.83,0,.59-1,1.58-1.67,1.79-1.31.37-2.39-.29-2.15-1.82.37-2.37-1.06-3.52-2.89-3.86-4.42-.83-4.61-4.71-5.86-7.77-.2-.47.81-2,1.46-2.11a4.21,4.21,0,0,1,3.06.63c.71.51.87,1.74,1.41,2.57,1.51,2.3,3.75,3.16,6,2.37A6.8,6.8,0,0,0,43.86,47.34Z"/></g></g></svg>